<svg xmlns="http://www.w3.org/2000/svg" viewBox="0 0 1366 489" preserveAspectRatio="xMidYMid" width="1366" height="489" xmlns:xlink="http://www.w3.org/1999/xlink" style="shape-rendering:auto;display:block;background-position-x:0%;background-position-y:0%;background-size:auto;background-origin:padding-box;background-clip:border-box;background:scroll rgb(255, 255, 255) none  repeat;width:1366px;height:489px;;animation:none"><g><linearGradient y2="0" y1="0" x2="1" x1="0" id="lg-o578w6yh81n"><stop offset="0" stop-color="#e2a9f4"></stop>

  
<stop offset="1" stop-color="#bab9f6"></stop></linearGradient>
<path opacity="0.4" fill="url(#lg-o578w6yh81n)" d="M 0 0 L 0 330.9 Q 136.6 324.75 273.2 304.75 T 546.4 233.15 T 819.6 210.85 T 1092.8 244.38 T 1366 193.78 L 1366 0 Z" style="fill:url('#lg-o578w6yh81n');opacity:0.4;;animation:none"></path>
<path opacity="0.4" fill="url(#lg-o578w6yh81n)" d="M 0 0 L 0 305.721 Q 136.6 304.811 273.2 279.987 T 546.4 244.498 T 819.6 199.817 T 1092.8 159.722 T 1366 159.985 L 1366 0 Z" style="fill:url('#lg-o578w6yh81n');opacity:0.4;;animation:none"></path>
<path opacity="0.4" fill="url(#lg-o578w6yh81n)" d="M 0 0 L 0 313.471 Q 136.6 352.303 273.2 328.082 T 546.4 218.973 T 819.6 238.757 T 1092.8 185.135 T 1366 150.966 L 1366 0 Z" style="fill:url('#lg-o578w6yh81n');opacity:0.4;;animation:none"></path>
<path opacity="0.4" fill="url(#lg-o578w6yh81n)" d="M 0 0 L 0 334.507 Q 136.6 298.097 273.2 273.376 T 546.4 285.607 T 819.6 222.588 T 1092.8 242.447 T 1366 190.917 L 1366 0 Z" style="fill:url('#lg-o578w6yh81n');opacity:0.4;;animation:none"></path>
<path opacity="0.4" fill="url(#lg-o578w6yh81n)" d="M 0 0 L 0 350.086 Q 136.6 307.286 273.2 285.942 T 546.4 240.836 T 819.6 247.446 T 1092.8 155.895 T 1366 122.534 L 1366 0 Z" style="fill:url('#lg-o578w6yh81n');opacity:0.4;;animation:none"></path>
<g></g></g><!-- [ldio] generated by https://loading.io --></svg>